<?xml version="1.0" encoding="UTF-8" standalone="no"?>
<!-- Created with Inkscape (http://www.inkscape.org/) -->

<svg
   xmlns:dc="http://purl.org/dc/elements/1.1/"
   xmlns:cc="http://creativecommons.org/ns#"
   xmlns:rdf="http://www.w3.org/1999/02/22-rdf-syntax-ns#"
   xmlns:svg="http://www.w3.org/2000/svg"
   xmlns="http://www.w3.org/2000/svg"
   xmlns:sodipodi="http://sodipodi.sourceforge.net/DTD/sodipodi-0.dtd"
   xmlns:inkscape="http://www.inkscape.org/namespaces/inkscape"
   width="210mm"
   height="297mm"
   viewBox="0 0 744.09448819 1052.3622047"
   id="svg2"
   version="1.1"
   inkscape:version="0.91 r13725"
   sodipodi:docname="track.svg">
  <defs
     id="defs4">
    <inkscape:path-effect
       effect="powerstroke"
       id="path-effect4140"
       is_visible="true"
       offset_points="51.98617,20.537971"
       sort_points="true"
       interpolator_type="Linear"
       interpolator_beta="0.2"
       start_linecap_type="zerowidth"
       linejoin_type="round"
       miter_limit="4"
       end_linecap_type="zerowidth"
       cusp_linecap_type="round" />
    <inkscape:path-effect
       effect="spiro"
       id="path-effect4138"
       is_visible="true" />
  </defs>
  <sodipodi:namedview
     id="base"
     pagecolor="#ffffff"
     bordercolor="#666666"
     borderopacity="1.0"
     inkscape:pageopacity="0.0"
     inkscape:pageshadow="2"
     inkscape:zoom="0.98994949"
     inkscape:cx="427.76204"
     inkscape:cy="499.61295"
     inkscape:document-units="px"
     inkscape:current-layer="layer1"
     showgrid="false"
     inkscape:window-width="1920"
     inkscape:window-height="1137"
     inkscape:window-x="1272"
     inkscape:window-y="-8"
     inkscape:window-maximized="1" />
  <metadata
     id="metadata7">
    <rdf:RDF>
      <cc:Work
         rdf:about="">
        <dc:format>image/svg+xml</dc:format>
        <dc:type
           rdf:resource="http://purl.org/dc/dcmitype/StillImage" />
      </cc:Work>
    </rdf:RDF>
  </metadata>
  <g
     inkscape:label="Layer 1"
     inkscape:groupmode="layer"
     id="layer1">
    <path
       style="fill:#000000;fill-rule:evenodd;stroke:#000000;stroke-width:0;stroke-linecap:butt;stroke-linejoin:miter;stroke-miterlimit:4;stroke-dasharray:none;stroke-opacity:1"
       d="m 65.542802,262.18336 c 7.358357,-33.5562 23.344993,-65.08083 45.544998,-91.95266 22.20489,-26.87775 50.4407,-48.87145 81.95197,-63.46808 63.27509,-29.310241 139.23198,-29.826947 204.9653,-4.13529 50.73517,19.82967 95.6309,54.53633 130.86164,97.33611 35.22953,42.79831 60.99651,93.47134 78.52265,147.06151 l 1.3e-4,4.2e-4 c 9.10773,27.84903 15.74448,55.7274 17.31511,83.57787 1.5694,27.82848 -2.09404,55.41028 -12.57195,79.69151 -10.48108,24.28856 -28.05241,45.03864 -50.03512,56.92587 -10.86778,5.87679 -23.04358,9.52997 -35.30636,10.57349 -12.25047,1.04246 -24.32723,-0.53683 -35.19742,-4.82767 -17.05529,-6.73232 -32.05684,-20.25459 -43.47442,-37.26917 -11.44271,-17.05204 -19.25536,-37.0499 -25.73341,-58.73197 -2.90995,-9.73964 -15.21084,-56.76808 -18.74682,-68.47846 -7.07474,-23.42995 -16.23996,-47.48369 -31.18686,-69.41276 l -2.3e-4,-1.6e-4 c -10.26,-15.0529 -23.22589,-28.66268 -38.27916,-39.4568 -15.06634,-10.80349 -32.40318,-18.90873 -51.30282,-22.62018 l -1.5e-4,-3e-5 c -18.82084,-3.69595 -38.85027,-2.94731 -57.62169,3.14349 -18.76572,6.08896 -36.10942,17.55728 -48.71585,33.45379 -10.54873,13.30179 -17.2801,29.02499 -20.40838,45.04632 l 0,1.2e-4 c -3.12883,16.02411 -2.70457,32.32473 0.28153,47.71688 5.96078,30.72547 21.9408,57.63877 39.99792,79.92533 l 1.4e-4,1.5e-4 c 17.84012,22.01872 39.08742,41.41608 57.61067,59.51136 19.0273,18.58767 35.82944,36.36098 48.15079,56.85721 11.90956,19.81122 19.65033,42.18481 27.97692,66.93342 8.10858,24.10064 16.82493,50.64126 30.93696,75.04865 14.20714,24.57188 35.09821,48.37821 63.60895,61.42636 14.26483,6.5284 30.31862,10.23808 46.72575,9.64798 l 1.3e-4,0 c 16.40111,-0.58991 33.08291,-5.56165 47.18469,-15.32185 15.1074,-10.45622 25.44327,-25.06232 32.88689,-38.61079 6.75617,-12.29722 13.43187,-28.42539 18.35513,-38.46279 5.72285,-11.66758 11.65773,-21.14035 19.08858,-27.98761 3.55573,-3.27649 7.53496,-5.89047 11.56101,-7.60378 4.00493,-1.70433 7.81181,-2.42066 11.26586,-2.27447 6.0459,0.25589 12.86011,3.31977 18.44023,8.83411 5.57206,5.50638 9.89612,13.22734 12.73924,22.36509 2.85446,9.1742 4.13867,19.17492 4.81569,30.49677 0.37729,6.30944 1.00568,28.3048 1.52123,36.256 l 2e-5,2e-4 c 1.89721,29.25962 6.46082,47.92025 6.24223,72.59051 -0.0977,11.0291 -1.35472,21.39243 -4.27314,30.80648 -2.91592,9.4059 -7.49107,17.68551 -13.47068,23.94756 -6.03201,6.31693 -14.20117,11.32848 -23.65536,14.81686 -9.47101,3.49458 -19.97517,5.42957 -31.34756,6.4625 -17.61415,1.59984 -53.17723,0.77451 -75.88734,3.99883 l -2.2e-4,3e-5 c -35.2449,5.00402 -67.7234,19.62666 -96.68701,32.76197 l -2.2e-4,8e-5 c -29.84144,13.53344 -57.01761,25.82429 -85.62218,30.44652 l -2.2e-4,3e-5 c -14.09186,2.27708 -28.03259,2.53788 -41.14176,0.16679 -13.10875,-2.37104 -25.30146,-7.42314 -35.09669,-14.95738 -9.80161,-7.53914 -17.14119,-17.64348 -20.51529,-28.5186 -3.37919,-10.89161 -2.67201,-22.67777 1.86307,-32.04156 1.68336,-3.47569 4.03386,-7.03133 7.24454,-11.45067 2.89329,-3.98246 7.13864,-9.50585 10.66631,-14.95152 3.70844,-5.72474 7.53448,-12.68256 9.94268,-20.74552 2.41521,-8.08645 3.47098,-17.68239 1.22239,-27.49212 -2.10833,-9.19788 -6.77155,-17.03511 -12.19498,-23.14242 -5.41891,-6.10223 -11.6994,-10.65831 -17.68207,-14.11919 -10.06952,-5.82505 -25.23981,-11.17277 -31.33176,-13.93716 -19.73329,-8.95454 -36.919,-24.45024 -50.03678,-43.38288 l -7e-5,-1.7e-4 c -13.12081,-18.937 -22.23445,-41.08543 -28.50949,-64.64156 l -5e-5,-1.8e-4 C 105.88013,640.76239 106.00431,593.36528 97.647711,537.72815 90.629161,490.99958 76.721537,440.02462 68.607577,396.50104 60.15101,351.13972 56.274274,306.19841 65.16278,263.9523 c 0.124184,-0.59023 0.25085,-1.17988 0.380022,-1.76894 z M 25.420196,253.3851 c -0.154194,0.70317 -0.305286,1.40652 -0.453307,2.11006 -10.521485,50.00747 -5.571475,101.15903 3.260459,148.53384 9.416994,50.51309 21.610484,91.93306 28.800053,139.80025 7.110747,47.34241 8.596693,105.38831 22.281457,156.76018 l 9e-5,2e-4 c 7.12752,26.75639 17.905275,53.60078 34.437672,77.46174 l 1.3e-4,1.9e-4 c 16.5356,23.86552 39.14584,44.83328 66.82664,57.39424 13.51621,6.13335 19.16826,7.13058 27.73721,12.08758 3.3366,1.93016 5.80661,3.89031 7.5365,5.83834 1.72538,1.94294 2.57404,3.74912 2.87116,5.04532 0.31926,1.39281 0.33114,3.63359 -0.54276,6.55951 -0.88091,2.94939 -2.51913,6.24702 -5.05931,10.16832 -2.72092,4.2003 -5.54963,7.81317 -9.42056,13.1412 -3.55357,4.89122 -7.6576,10.82057 -10.984,17.68871 l -2e-5,1.6e-4 c -9.50209,19.61929 -10.28934,42.25216 -4.12592,62.11772 l 5e-5,1.6e-4 c 6.1686,19.88212 18.97868,36.81068 34.70311,48.90548 15.7308,12.0997 34.24837,19.458 52.829,22.8188 18.58022,3.3607 37.30584,2.8231 55.00518,-0.037 l 2.5e-4,-10e-5 c 34.97753,-5.652 67.21974,-20.5197 96.03497,-33.5877 l 2.3e-4,-10e-5 c 29.69335,-13.46624 56.97297,-25.45297 85.49574,-29.50258 l 1.9e-4,-10e-6 c 26.79161,-3.80382 41.64984,-0.83666 73.8289,-3.7594 13.52427,-1.22838 27.86851,-3.67444 41.85106,-8.83367 13.99936,-5.16544 27.91104,-13.22268 39.14365,-24.98586 11.14929,-11.67593 18.5689,-25.8675 22.99722,-40.15202 l 4e-5,-1.1e-4 c 4.42578,-14.27637 5.99153,-28.83273 6.11357,-42.60535 0.22092,-24.93316 -5.01421,-55.37044 -6.3267,-75.61225 l -2e-5,-2e-4 c -1.03834,-16.01409 -0.45275,-18.34602 -1.51079,-36.04568 -0.7596,-12.70707 -2.30838,-26.47653 -6.59468,-40.25262 -4.29765,-13.81259 -11.56406,-27.99025 -23.08818,-39.37853 -11.51606,-11.38031 -27.60747,-19.89605 -45.57564,-20.65654 -10.42518,-0.44124 -20.31672,1.78283 -29.09438,5.51915 -8.75653,3.72733 -16.64405,9.05425 -23.30415,15.19129 -13.00083,11.97982 -21.6204,26.82925 -28.13251,40.10596 -7.3117,14.90687 -10.85484,24.71945 -17.47688,36.77254 -5.93461,10.80184 -12.52542,19.25899 -20.26319,24.6145 -7.05319,4.8817 -15.97443,7.71279 -25.28445,8.04765 -9.30403,0.33463 -19.02653,-1.77075 -28.15583,-5.94884 -18.27764,-8.36489 -33.59407,-24.66261 -45.14264,-44.63638 -11.64367,-20.13825 -19.21764,-42.68926 -27.5882,-67.56889 -8.15255,-24.23167 -17.07973,-50.72701 -31.68118,-75.01612 -15.2379,-25.34782 -35.30206,-46.15225 -54.66965,-65.07152 -19.87157,-19.41157 -38.54782,-36.45041 -54.38112,-55.99225 l -1.2e-4,-1.5e-4 c -15.61638,-19.27413 -27.36247,-40.10411 -31.58892,-61.88979 -2.1075,-10.86334 -2.28757,-21.79715 -0.29105,-32.02232 1.99712,-10.22811 6.20823,-19.74153 12.27781,-27.39518 7.23806,-9.12708 17.59682,-16.13817 29.20916,-19.90605 11.60664,-3.76603 24.51142,-4.36623 37.02921,-1.90804 12.43897,2.44272 24.39285,7.88811 35.27947,15.69419 10.8997,7.81545 20.54902,17.87418 28.27642,29.21125 l 1.2e-4,1.8e-4 c 11.54017,16.93096 19.25651,36.44874 25.80729,58.14039 10.04278,33.25473 8.20485,33.21086 18.71098,68.37498 6.98477,23.37811 16.21999,47.86267 30.98216,69.8614 14.78735,22.03623 35.81252,42.0532 62.50092,52.58803 17.32264,6.83785 35.82208,9.07539 53.76494,7.54821 17.93053,-1.52613 35.56519,-6.82907 51.35875,-15.3695 31.33998,-16.9472 54.67431,-45.41284 68.21117,-76.78282 13.54003,-31.37731 17.71225,-65.58398 15.86841,-98.27892 -1.8426,-32.67294 -9.54955,-64.26544 -19.28473,-94.03306 l -2.3e-4,-4.1e-4 C 627.6226,276.74747 599.63839,221.30765 560.58034,173.85829 521.5233,126.41016 471.09297,87.091601 412.95793,64.369713 337.59767,34.9154 249.95635,35.128942 175.77493,69.491203 138.55796,86.730823 105.44281,112.57287 79.422827,144.06826 53.397952,175.56957 34.285787,212.95547 25.420196,253.3851 Z"
       id="path4136"
       inkscape:path-effect="#path-effect4138;#path-effect4140"
       inkscape:original-d="M 45.481499,257.78423 C 102.69027,137.3591 274.93672,56.422389 405.4815,83.498519 516.23833,106.47045 612.1973,228.48827 626.91007,340.64137 641.14899,449.18239 593.51383,593.55738 484.05293,592.06995 379.62584,590.65091 438.74894,413.67758 355.4815,350.64137 311.72088,317.51313 225.23742,282.20977 192.62436,326.35566 c -58.34345,78.97522 125.71429,250 127.14286,265.71429 1.42857,15.71428 98.84087,204.30481 187.14285,191.42857 60.70347,-8.85181 44.3803,-119.75795 105.71429,-118.57144 59.62683,1.1535 47.45416,58.29715 57.14286,117.14287 7.79162,47.32354 -11.42857,95.23809 -17.14286,142.85714 -5.80926,48.41048 -97.87291,50.23668 -142.85714,31.42858 -110.47619,-46.19048 -221.0775,49.85803 -298.57143,-41.42858 -15.51967,-18.28192 40.81409,-30.41144 27.54126,-61.09875 -13.27284,-30.68732 -38.57356,-1.14052 -49.67687,-37.08502 C 166.85356,744.85431 91.329966,590.80723 77.337556,540.7787 49.352726,440.72164 4.3206338,344.42833 45.481499,257.78423 Z"
       inkscape:connector-curvature="0"
       sodipodi:nodetypes="sssssssssssssssss" />
  </g>
</svg>
